<svg width="16" height="16" viewBox="0 0 16 16" fill="none" xmlns="http://www.w3.org/2000/svg">
<g clip-path="url(#clip0_1131_782)">
<path d="M7.99992 14.6673C4.31792 14.6673 1.33325 11.6827 1.33325 8.00065C1.33325 4.31865 4.31792 1.33398 7.99992 1.33398C11.6819 1.33398 14.6666 4.31865 14.6666 8.00065C14.6666 11.6827 11.6819 14.6673 7.99992 14.6673ZM7.99992 13.334C9.41441 13.334 10.771 12.7721 11.7712 11.7719C12.7713 10.7717 13.3333 9.41514 13.3333 8.00065C13.3333 6.58616 12.7713 5.22961 11.7712 4.22941C10.771 3.22922 9.41441 2.66732 7.99992 2.66732C6.58543 2.66732 5.22888 3.22922 4.22868 4.22941C3.22849 5.22961 2.66659 6.58616 2.66659 8.00065C2.66659 9.41514 3.22849 10.7717 4.22868 11.7719C5.22888 12.7721 6.58543 13.334 7.99992 13.334ZM4.66658 8.00065H5.99992C5.99992 8.53108 6.21063 9.03979 6.5857 9.41486C6.96078 9.78994 7.46949 10.0007 7.99992 10.0007C8.53035 10.0007 9.03906 9.78994 9.41413 9.41486C9.7892 9.03979 9.99992 8.53108 9.99992 8.00065H11.3333C11.3333 8.88471 10.9821 9.73255 10.3569 10.3577C9.73182 10.9828 8.88397 11.334 7.99992 11.334C7.11586 11.334 6.26802 10.9828 5.6429 10.3577C5.01777 9.73255 4.66658 8.88471 4.66658 8.00065Z" fill="#667085"/>
</g>
<defs>
<clipPath id="clip0_1131_782">
<rect width="16" height="16" fill="white"/>
</clipPath>
</defs>
</svg>
